<svg xmlns="http://www.w3.org/2000/svg" width="1200" height="675" viewBox="0 0 1200 675"><defs>
<linearGradient id="bg" x1="0" y1="0" x2="1" y2="1"><stop offset="0" stop-color="#0B1220"/><stop offset="0.55" stop-color="#0F1E3A"/><stop offset="1" stop-color="#07101D"/></linearGradient>
<linearGradient id="panel" x1="0" y1="0" x2="1" y2="1"><stop offset="0" stop-color="#17243A"/><stop offset="1" stop-color="#101A2A"/></linearGradient>
<linearGradient id="gold" x1="0" y1="0" x2="1" y2="0"><stop offset="0" stop-color="#F5C542"/><stop offset="1" stop-color="#FFD880"/></linearGradient>
<linearGradient id="teal" x1="0" y1="0" x2="1" y2="0"><stop offset="0" stop-color="#0EA5A8"/><stop offset="1" stop-color="#14B8A6"/></linearGradient>
<filter id="shadow"><feDropShadow dx="0" dy="10" stdDeviation="12" flood-color="#000" flood-opacity="0.35"/></filter>
<filter id="glow"><feGaussianBlur stdDeviation="4" result="b"/><feMerge><feMergeNode in="b"/><feMergeNode in="SourceGraphic"/></feMerge></filter>
<pattern id="grid" width="38" height="38" patternUnits="userSpaceOnUse"><path d="M38 0H0V38" fill="none" stroke="#5B789E" stroke-opacity=".055" stroke-width="1"/></pattern>
</defs>
<rect width="1200" height="675" rx="26" fill="url(#bg)"/><rect width="1200" height="675" rx="26" fill="url(#grid)"/>
<rect x="18" y="18" width="1164" height="639" rx="22" fill="none" stroke="#213753" stroke-width="2"/><rect x="18" y="18" width="6" height="639" rx="3" fill="url(#teal)"/>
<g transform="translate(42,36) scale(0.82)" fill="none" stroke="#F5C542" stroke-width="3" stroke-linecap="round" stroke-linejoin="round"><path d="M8 11 Q8 3 16 3 H28 Q36 3 36 11 V29 H8Z"/><path d="M12 12 H32 V23 H12Z"/><path d="M8 29 V36 M36 29 V36 M13 29 V34 M31 29 V34"/><path d="M7 24 H37"/><path d="M12 11 Q22 4 32 11"/></g><text x="90" y="48" fill="#14B8A6" font-family="Poppins, Arial, sans-serif" font-size="14" font-weight="700" text-anchor="start" opacity="1" letter-spacing="2">STAFF • /case case_id:1042</text><text x="90" y="86" fill="#F8FAFC" font-family="Cinzel, Georgia, serif" font-size="35" font-weight="750" text-anchor="start" opacity="1" letter-spacing="0.5">MODERATION CASE</text>
<rect x="930" y="42" width="214" height="42" rx="21" fill="#0B1727" stroke="#F59E0B" stroke-width="1" opacity="1"/><text x="1037" y="69" fill="#F59E0B" font-family="Poppins, Arial, sans-serif" font-size="14" font-weight="700" text-anchor="middle" opacity="1" letter-spacing="1.05">STAFF ONLY</text><line x1="42" y1="108" x2="1152" y2="108" stroke="#29435F" stroke-width="1" opacity="1"/><rect x="42" y="128" width="1110" height="82" rx="14" fill="#0B1727" stroke="#334155" stroke-width="1" opacity="1"/><text x="62" y="154" fill="#F5C542" font-family="Poppins, Arial, sans-serif" font-size="12" font-weight="850" text-anchor="start" opacity="1" letter-spacing="1.6">CASE #1042</text><text x="62" y="187" fill="#F8FAFC" font-family="Poppins, Arial, sans-serif" font-size="23" font-weight="800" text-anchor="start" opacity="1" letter-spacing="0">WARNING</text><rect x="950" y="151" width="170" height="30" rx="15" fill="#0B1727" stroke="#F59E0B" stroke-width="1" opacity="1"/><text x="1035.0" y="171" fill="#F59E0B" font-family="Poppins, Arial, sans-serif" font-size="11" font-weight="750" text-anchor="middle" opacity="1" letter-spacing="0.6">OPEN</text><rect x="42" y="236" width="1110" height="54" rx="10" fill="url(#panel)" stroke="#334155" stroke-width="1" opacity="1"/><text x="62" y="257" fill="#94A3B8" font-family="Poppins, Arial, sans-serif" font-size="10" font-weight="800" text-anchor="start" opacity="1" letter-spacing="1.3">MEMBER</text><text x="242" y="270" fill="#F8FAFC" font-family="Poppins, Arial, sans-serif" font-size="13" font-weight="650" text-anchor="start" opacity="1" letter-spacing="0">NotExample</text><rect x="42" y="298" width="1110" height="54" rx="10" fill="url(#panel)" stroke="#334155" stroke-width="1" opacity="1"/><text x="62" y="319" fill="#94A3B8" font-family="Poppins, Arial, sans-serif" font-size="10" font-weight="800" text-anchor="start" opacity="1" letter-spacing="1.3">ACTION</text><text x="242" y="332" fill="#F8FAFC" font-family="Poppins, Arial, sans-serif" font-size="13" font-weight="650" text-anchor="start" opacity="1" letter-spacing="0">Warn</text><rect x="42" y="360" width="1110" height="54" rx="10" fill="url(#panel)" stroke="#334155" stroke-width="1" opacity="1"/><text x="62" y="381" fill="#94A3B8" font-family="Poppins, Arial, sans-serif" font-size="10" font-weight="800" text-anchor="start" opacity="1" letter-spacing="1.3">STAFF</text><text x="242" y="394" fill="#F8FAFC" font-family="Poppins, Arial, sans-serif" font-size="13" font-weight="650" text-anchor="start" opacity="1" letter-spacing="0">NotModerator</text><rect x="42" y="422" width="1110" height="54" rx="10" fill="url(#panel)" stroke="#334155" stroke-width="1" opacity="1"/><text x="62" y="443" fill="#94A3B8" font-family="Poppins, Arial, sans-serif" font-size="10" font-weight="800" text-anchor="start" opacity="1" letter-spacing="1.3">REASON</text><text x="242" y="456" fill="#F8FAFC" font-family="Poppins, Arial, sans-serif" font-size="13" font-weight="650" text-anchor="start" opacity="1" letter-spacing="0">Repeated targeted harassment after staff direction</text><rect x="42" y="484" width="1110" height="54" rx="10" fill="url(#panel)" stroke="#334155" stroke-width="1" opacity="1"/><text x="62" y="505" fill="#94A3B8" font-family="Poppins, Arial, sans-serif" font-size="10" font-weight="800" text-anchor="start" opacity="1" letter-spacing="1.3">CREATED</text><text x="242" y="518" fill="#F8FAFC" font-family="Poppins, Arial, sans-serif" font-size="13" font-weight="650" text-anchor="start" opacity="1" letter-spacing="0">Sep 21, 2026 • 7:22 AM MT</text><rect x="42" y="560" width="1110" height="58" rx="10" fill="#101A28" opacity="1"/><text x="62" y="590" fill="#94A3B8" font-family="Poppins, Arial, sans-serif" font-size="12" font-weight="600" text-anchor="start" opacity="1" letter-spacing="0">Case edits/reversals create new audit history; the original action is never silently rewritten.</text><text x="1148" y="642" fill="#94A3B8" font-family="Poppins, Arial, sans-serif" font-size="12" font-weight="600" text-anchor="end" opacity="1" letter-spacing="1.4">ANGRIER JORDAN • THE CHAIRMAN</text></svg>