<svg xmlns="http://www.w3.org/2000/svg" width="1200" height="675" viewBox="0 0 1200 675"><defs>
<linearGradient id="bg" x1="0" y1="0" x2="1" y2="1"><stop offset="0" stop-color="#0B1220"/><stop offset="0.55" stop-color="#0F1E3A"/><stop offset="1" stop-color="#07101D"/></linearGradient>
<linearGradient id="panel" x1="0" y1="0" x2="1" y2="1"><stop offset="0" stop-color="#17243A"/><stop offset="1" stop-color="#101A2A"/></linearGradient>
<linearGradient id="gold" x1="0" y1="0" x2="1" y2="0"><stop offset="0" stop-color="#F5C542"/><stop offset="1" stop-color="#FFD880"/></linearGradient>
<linearGradient id="teal" x1="0" y1="0" x2="1" y2="0"><stop offset="0" stop-color="#0EA5A8"/><stop offset="1" stop-color="#14B8A6"/></linearGradient>
<filter id="shadow"><feDropShadow dx="0" dy="10" stdDeviation="12" flood-color="#000" flood-opacity="0.35"/></filter>
<filter id="glow"><feGaussianBlur stdDeviation="4" result="b"/><feMerge><feMergeNode in="b"/><feMergeNode in="SourceGraphic"/></feMerge></filter>
<pattern id="grid" width="38" height="38" patternUnits="userSpaceOnUse"><path d="M38 0H0V38" fill="none" stroke="#5B789E" stroke-opacity=".06" stroke-width="1"/></pattern>
</defs>
<rect width="1200" height="675" rx="26" fill="url(#bg)"/><rect width="1200" height="675" rx="26" fill="url(#grid)"/>
<rect x="18" y="18" width="1164" height="639" rx="22" fill="none" stroke="#213753" stroke-width="2"/>
<rect x="18" y="18" width="6" height="639" rx="3" fill="url(#teal)"/>
<g transform="translate(42,36) scale(0.82)" fill="none" stroke="#F5C542" stroke-width="3" stroke-linecap="round" stroke-linejoin="round">
<path d="M8 11 Q8 3 16 3 H28 Q36 3 36 11 V29 H8Z"/><path d="M12 12 H32 V23 H12Z"/><path d="M8 29 V36 M36 29 V36 M13 29 V34 M31 29 V34"/><path d="M7 24 H37"/><path d="M12 11 Q22 4 32 11"/></g>
<text x="90" y="48" fill="#14B8A6" font-family="Inter, Arial, sans-serif" font-size="14" font-weight="700" text-anchor="start" opacity="1" letter-spacing="2">SLASH COMMAND • /fight @member</text>
<text x="90" y="86" fill="#F8FAFC" font-family="Space Grotesk, Arial, sans-serif" font-size="35" font-weight="750" text-anchor="start" opacity="1" letter-spacing="0.5">ROBO CHAIR FIGHT</text>
<rect x="940" y="42" width="204" height="42" rx="21" fill="#0B1727" stroke="#14B8A6" stroke-width="1" opacity="1"/><text x="1042" y="69" fill="#14B8A6" font-family="Inter, Arial, sans-serif" font-size="14" font-weight="700" text-anchor="middle" opacity="1" letter-spacing="1.1">COMBAT LIVE</text>
<line x1="42" y1="108" x2="1152" y2="108" stroke="#29435F"/>
<rect x="42" y="128" width="1110" height="76" rx="14" fill="#0B1727" stroke="#334155" stroke-width="1" opacity="1"/><text x="62" y="154" fill="#14B8A6" font-family="Inter, Arial, sans-serif" font-size="12" font-weight="800" text-anchor="start" opacity="1" letter-spacing="1.7">COMBAT LIVE</text><text x="62" y="186" fill="#94A3B8" font-family="Inter, Arial, sans-serif" font-size="14" font-weight="500" text-anchor="start" opacity="1" letter-spacing="0">Betting closed • result already selected by fair 50/50 RNG • narration cannot change it</text><text x="1128" y="178" fill="#F8FAFC" font-family="Inter, Arial, sans-serif" font-size="22" font-weight="800" text-anchor="end" opacity="1" letter-spacing="0">00:11.8</text><rect x="42" y="222" width="490" height="210" rx="18" fill="#121A28" stroke="#EF4444" stroke-width="1" opacity="1"/><image href="{{fighter_a_asset}}" x="62" y="238" width="150" height="150" preserveAspectRatio="xMidYMid meet"/><text x="235" y="265" fill="#F8FAFC" font-family="Inter, Arial, sans-serif" font-size="22" font-weight="800" text-anchor="start" opacity="1" letter-spacing="0">{{challenger_name}}</text><text x="235" y="292" fill="#EF4444" font-family="Inter, Arial, sans-serif" font-size="16" font-weight="800" text-anchor="start" opacity="1" letter-spacing="0">67 HP</text><rect x="235" y="310" width="270" height="15" rx="7.5" fill="#07101B" stroke="#334155" stroke-width="1" opacity="1"/><rect x="235" y="310" width="180.9" height="15" rx="7.5" fill="#EF4444" opacity="1"/><rect x="662" y="222" width="490" height="210" rx="18" fill="#121A28" stroke="#3B82F6" stroke-width="1" opacity="1"/><image href="{{fighter_b_asset}}" x="682" y="238" width="150" height="150" preserveAspectRatio="xMidYMid meet"/><text x="855" y="265" fill="#F8FAFC" font-family="Inter, Arial, sans-serif" font-size="22" font-weight="800" text-anchor="start" opacity="1" letter-spacing="0">{{opponent_name}}</text><text x="855" y="292" fill="#3B82F6" font-family="Inter, Arial, sans-serif" font-size="16" font-weight="800" text-anchor="start" opacity="1" letter-spacing="0">38 HP</text><rect x="855" y="310" width="270" height="15" rx="7.5" fill="#07101B" stroke="#334155" stroke-width="1" opacity="1"/><rect x="855" y="310" width="102.6" height="15" rx="7.5" fill="#3B82F6" opacity="1"/><text x="600" y="320" fill="#F5C542" font-family="Space Grotesk, Arial, sans-serif" font-size="26" font-weight="900" text-anchor="middle" opacity="1" letter-spacing="0">VS</text><rect x="42" y="452" width="1110" height="132" rx="14" fill="#0B1727" stroke="#334155" stroke-width="1" opacity="1"/><text x="62" y="478" fill="#14B8A6" font-family="Inter, Arial, sans-serif" font-size="11" font-weight="800" text-anchor="start" opacity="1" letter-spacing="1.6">LIVE COMBAT LOG</text><text x="62" y="507" fill="#F8FAFC" font-family="Inter, Arial, sans-serif" font-size="14" font-weight="600" text-anchor="start" opacity="1" letter-spacing="0">NotJordan uses Recliner Ram — 18 damage</text><text x="62" y="535" fill="#94A3B8" font-family="Inter, Arial, sans-serif" font-size="14" font-weight="500" text-anchor="start" opacity="1" letter-spacing="0">NotKyngix blocks Ottoman Uppercut — 7 damage</text><text x="62" y="563" fill="#10B981" font-family="Inter, Arial, sans-serif" font-size="14" font-weight="600" text-anchor="start" opacity="1" letter-spacing="0">NotJordan restores with Lumbar Support — +9 HP</text>
<text x="1148" y="642" fill="#94A3B8" font-family="Inter, Arial, sans-serif" font-size="12" font-weight="600" text-anchor="end" opacity="1" letter-spacing="1.4">ANGRIER JORDAN • THE CHAIRMAN</text>
</svg>